<?xml version="1.0" encoding="UTF-8" standalone="no"?>
<svg
   xmlns:dc="http://purl.org/dc/elements/1.1/"
   xmlns:cc="http://creativecommons.org/ns#"
   xmlns:rdf="http://www.w3.org/1999/02/22-rdf-syntax-ns#"
   xmlns:svg="http://www.w3.org/2000/svg"
   xmlns="http://www.w3.org/2000/svg"
   xmlns:sodipodi="http://sodipodi.sourceforge.net/DTD/sodipodi-0.dtd"
   xmlns:inkscape="http://www.inkscape.org/namespaces/inkscape"
   inkscape:export-ydpi="96"
   inkscape:export-xdpi="96"
   inkscape:export-filename="C:\Users\Shubham\Documents\GitHub\linkener-web\static\logo.png"
   sodipodi:docname="logo5.svg"
   inkscape:version="1.0 (4035a4fb49, 2020-05-01)"
   id="svg1138"
   version="1.1"
   viewBox="0 0 270.93333 270.93333"
   height="1024"
   width="1024">
  <defs
     id="defs1132">
    <filter
       inkscape:collect="always"
       style="color-interpolation-filters:sRGB"
       id="filter1010-9"
       x="-7.0490108e-07"
       width="1.0000014"
       y="-3.5855492e-06"
       height="1.0000072">
      <feGaussianBlur
         inkscape:collect="always"
         stdDeviation="7.9964144e-06"
         id="feGaussianBlur1012-7" />
    </filter>
  </defs>
  <sodipodi:namedview
     inkscape:pagecheckerboard="true"
     units="px"
     inkscape:window-maximized="1"
     inkscape:window-y="-9"
     inkscape:window-x="-9"
     inkscape:window-height="1271"
     inkscape:window-width="2400"
     showgrid="false"
     inkscape:document-rotation="0"
     inkscape:current-layer="layer1"
     inkscape:document-units="mm"
     inkscape:cy="743.18655"
     inkscape:cx="173.54041"
     inkscape:zoom="0.49497475"
     inkscape:pageshadow="2"
     inkscape:pageopacity="0.0"
     borderopacity="1.0"
     bordercolor="#666666"
     pagecolor="#ffffff"
     id="base" />
  <metadata
     id="metadata1135">
    <rdf:RDF>
      <cc:Work
         rdf:about="">
        <dc:format>image/svg+xml</dc:format>
        <dc:type
           rdf:resource="http://purl.org/dc/dcmitype/StillImage" />
        <dc:title></dc:title>
      </cc:Work>
    </rdf:RDF>
  </metadata>
  <g
     id="layer1"
     inkscape:groupmode="layer"
     inkscape:label="Layer 1">
    <path
       id="path900-4"
       style="font-variation-settings:normal;opacity:1;vector-effect:none;fill:#eb9947;fill-opacity:1;stroke:none;stroke-width:0;stroke-linecap:butt;stroke-linejoin:miter;stroke-miterlimit:4;stroke-dasharray:none;stroke-dashoffset:0;stroke-opacity:0;stop-color:#000000;stop-opacity:1"
       d="m 133.49981,24.424678 c 1.54088,4.368007 2.00672,7.271832 2.00672,12.509439 0,6.568897 -0.8829,10.579911 -3.58124,16.268736 -2.47417,5.216421 -3.73426,6.731333 -16.10674,19.363445 -6.28039,6.412049 -7.04357,7.253049 -7.44782,7.621289 -16.619913,-16.623531 -5.7072,-18.239125 6.3634,-34.748951 1.59493,-2.674689 2.26506,-5.050845 2.4001,-8.51034 -1.90252,-15.279135 -16.10119,-23.594014 -28.08285,-15.1208 -1.76038,1.292262 -24.592887,24.645298 -26.873925,27.483315 -8.996147,10.235443 -0.624411,21.246394 5.350383,28.244259 0.316812,1.262611 -2.652165,5.820084 -6.173313,9.476121 -2.820614,2.928703 -4.251535,4.046814 -5.177775,4.046949 -1.698128,1.6e-5 -7.984684,-5.956755 -10.793201,-10.226977 -6.337435,-10.697599 -8.228866,-22.284402 -4.073153,-33.7144 1.870292,-4.974037 4.103836,-8.274861 9.887822,-14.612506 C 56.897648,26.259716 74.173594,9.0240198 76.470778,7.2890081 83.142112,2.5077888 92.145915,-0.02427133 98.976264,1.7536294e-4 114.22634,0.45096487 129.2663,13.176602 133.49981,24.424678 Z M 82.001259,46.651845 c 14.356295,17.403809 19.708071,35.980174 6.503219,52.732715 -1.807763,2.25703 -24.640879,25.69142 -27.29654,28.01502 C 38.451222,145.81401 6.6289476,130.08328 0.59018001,106.93595 -1.2514819,96.525937 1.3008684,85.186482 7.0759775,77.306867 8.6181965,75.243944 26.449755,56.596515 26.679513,56.826349 c 18.787315,18.770968 8.459678,15.753017 -5.241802,33.372376 -6.005755,13.925495 0.481596,27.538285 14.703511,27.730055 4.391851,0.006 8.073568,-1.32794 11.333722,-4.10988 1.699679,-1.45052 22.787454,-22.998011 25.210751,-25.760893 4.50143,-4.926234 5.098542,-10.240738 3.572136,-16.484237 -1.224187,-4.842203 -2.381574,-8.426994 -6.856982,-11.477354 -0.83447,-5.303272 6.988921,-17.431134 12.60041,-13.444571 z"
       sodipodi:nodetypes="csssccccccscccccccccccccccscccc" />
    <path
       sodipodi:nodetypes="csssccccccscccccccccccccccscccc"
       d="m 137.43353,24.424678 c -1.54088,4.368007 -2.00673,7.271832 -2.00673,12.509439 0,6.568897 0.88291,10.579911 3.58126,16.268736 2.47416,5.216421 3.73423,6.731333 16.10673,19.363445 6.28039,6.412049 7.04355,7.253049 7.44783,7.621289 16.6199,-16.623531 5.70719,-18.239125 -6.3634,-34.748951 -1.59493,-2.674689 -2.26508,-5.050845 -2.40011,-8.51034 1.90253,-15.279135 16.10119,-23.594014 28.08284,-15.1208 1.76039,1.292262 24.59291,24.645298 26.87393,27.483315 8.99614,10.235443 0.62442,21.246394 -5.35038,28.244259 -0.31681,1.262611 2.65217,5.820084 6.17333,9.476121 2.82059,2.928703 4.25152,4.046814 5.17775,4.046949 1.69814,1.6e-5 7.98468,-5.956755 10.79322,-10.226977 6.33743,-10.697599 8.22885,-22.284402 4.07314,-33.7144 -1.87029,-4.974037 -4.10384,-8.274861 -9.88783,-14.612506 C 214.03569,26.259716 196.75973,9.0240198 194.46255,7.2890081 187.79122,2.5077888 178.78743,-0.02427133 171.95708,1.7536294e-4 156.70698,0.45096487 141.66704,13.176602 137.43353,24.424678 Z m 51.49854,22.227167 c -14.35627,17.403809 -19.70806,35.980174 -6.50321,52.732715 1.80776,2.25703 24.64088,25.69142 27.29653,28.01502 22.75674,18.41443 54.579,2.6837 60.61777,-20.46363 1.84167,-10.410013 -0.71069,-21.749468 -6.48581,-29.629083 -1.54223,-2.062923 -19.37377,-20.710352 -19.60352,-20.480518 -18.78734,18.770968 -8.45969,15.753017 5.2418,33.372376 6.00576,13.925495 -0.48161,27.538285 -14.7035,27.730055 -4.39187,0.006 -8.07358,-1.32794 -11.33373,-4.10988 -1.69969,-1.45052 -22.78745,-22.998011 -25.21074,-25.760893 -4.50145,-4.926234 -5.09856,-10.240738 -3.57217,-16.484237 1.22421,-4.842203 2.38159,-8.426994 6.85699,-11.477354 0.83447,-5.303272 -6.98891,-17.431134 -12.60041,-13.444571 z"
       style="font-variation-settings:normal;opacity:1;vector-effect:none;fill:#eb4747;fill-opacity:1;stroke:none;stroke-width:0;stroke-linecap:butt;stroke-linejoin:miter;stroke-miterlimit:4;stroke-dasharray:none;stroke-dashoffset:0;stroke-opacity:0;stop-color:#000000;stop-opacity:1"
       id="path900-4-3" />
    <path
       id="path900-4-3-3"
       style="font-variation-settings:normal;opacity:1;vector-effect:none;fill:#d65ad6;fill-opacity:1;stroke:none;stroke-width:0;stroke-linecap:butt;stroke-linejoin:miter;stroke-miterlimit:4;stroke-dasharray:none;stroke-dashoffset:0;stroke-opacity:0;stop-color:#000000;stop-opacity:1"
       d="m 159.87501,268.92616 c 4.36703,1.54121 7.27026,2.00717 12.50673,2.00717 6.56748,0 10.57759,-0.88311 16.26521,-3.58202 5.21528,-2.4747 6.72986,-3.73506 19.35925,-16.11022 6.41066,-6.28177 7.25145,-7.04513 7.61965,-7.44944 -16.61997,-16.62352 -18.2352,-5.70845 -34.74144,6.36477 -2.67413,1.59528 -5.04978,2.26554 -8.50849,2.40063 -15.27583,-1.90293 -23.58891,-16.1047 -15.11753,-28.08894 1.29199,-1.76076 24.63994,-24.59821 27.47737,-26.87975 10.2332,-8.99808 21.24178,-0.62455 28.23815,5.35156 1.2623,0.31688 5.81882,-2.65276 9.47408,-6.17466 2.92802,-2.82125 4.0459,-4.25247 4.04607,-5.1789 0,-1.69848 -5.95549,-7.98643 -10.22478,-10.79555 -10.69527,-6.3388 -22.2796,-8.23064 -33.70711,-4.07403 -4.97297,1.87072 -8.27308,4.10471 -14.60934,9.88997 -6.24316,5.70066 -23.47517,22.98036 -25.2098,25.27803 -4.78018,6.67277 -7.31167,15.67855 -7.28726,22.51038 0.45054,15.25336 13.17361,30.29659 24.41924,34.531 z m 22.22234,-51.5097 c 17.40007,14.35941 35.97239,19.71233 52.72128,6.50463 2.25657,-1.80815 25.68586,-24.64623 28.00901,-27.30245 18.41042,-22.76164 2.68307,-54.59082 -20.4592,-60.63089 -10.40782,-1.84205 -21.74481,0.71084 -29.62269,6.48721 -2.06249,1.54256 -20.70587,19.37798 -20.47612,19.60779 18.76697,18.79136 15.74965,8.4615 33.36517,-5.24296 13.9225,-6.00704 27.53234,0.48171 27.72409,14.70671 0.006,4.3928 -1.32767,8.07532 -4.109,11.33616 -1.45023,1.70006 -22.99308,22.79238 -25.75532,25.21623 -4.92515,4.50242 -10.23853,5.09963 -16.4807,3.57289 -4.84116,-1.22443 -8.42517,-2.38208 -11.47487,-6.85846 -5.30212,-0.83465 -17.42737,6.99044 -13.44165,12.60314 z"
       sodipodi:nodetypes="csssccccccscccccccccccccccscccc" />
    <path
       sodipodi:nodetypes="csssccccccscccccccccccccccscccc"
       d="m 111.05835,268.92616 c -4.36705,1.54121 -7.27028,2.00717 -12.506756,2.00717 -6.567468,0 -10.577593,-0.88311 -16.265205,-3.58202 -5.215281,-2.4747 -6.729869,-3.73506 -19.35924,-16.11022 -6.410672,-6.28177 -7.251469,-7.04513 -7.619658,-7.44944 16.619966,-16.62352 18.2352,-5.70845 34.741426,6.36477 2.674137,1.59528 5.049773,2.26554 8.508502,2.40063 15.275831,-1.90293 23.588921,-16.1047 15.117531,-28.08894 -1.29198,-1.76076 -24.639938,-24.59821 -27.477365,-26.87975 -10.233207,-8.99808 -21.241793,-0.62455 -28.238149,5.35156 -1.262306,0.31688 -5.818832,-2.65276 -9.474083,-6.17466 -2.928031,-2.82125 -4.045912,-4.25247 -4.046078,-5.1789 0,-1.69848 5.955487,-7.98643 10.224774,-10.79555 10.695273,-6.3388 22.279614,-8.23064 33.707102,-4.07403 4.972986,1.8707 8.273087,4.10471 14.609359,9.88997 6.24317,5.70066 23.47518,22.98036 25.20981,25.27803 4.78018,6.67277 7.31167,15.67855 7.28725,22.51038 -0.45053,15.25336 -13.17361,30.29659 -24.41922,34.531 z M 88.835994,217.41646 C 71.435929,231.77587 52.863611,237.12879 36.114701,223.92109 33.858131,222.11294 10.428845,199.27486 8.1056956,196.61864 -10.304721,173.857 5.4226257,142.02782 28.564896,135.98775 c 10.407813,-1.84205 21.744811,0.71084 29.622686,6.48719 2.062487,1.54255 20.705881,19.37798 20.476125,19.60779 -18.766954,18.79138 -15.749653,8.46152 -33.365159,-5.24294 -13.922525,-6.00706 -27.532344,0.48171 -27.724096,14.70671 -0.0054,4.3928 1.327663,8.0753 4.108996,11.33616 1.450226,1.70006 22.993075,22.79238 25.755319,25.21623 4.92516,4.50242 10.238534,5.09963 16.480703,3.57289 4.841155,-1.22443 8.425167,-2.38208 11.474872,-6.85846 5.302113,-0.83465 17.427361,6.99044 13.441652,12.60314 z"
       style="font-variation-settings:normal;opacity:1;vector-effect:none;fill:#337fcc;fill-opacity:1;stroke:none;stroke-width:0;stroke-linecap:butt;stroke-linejoin:miter;stroke-miterlimit:4;stroke-dasharray:none;stroke-dashoffset:0;stroke-opacity:0;stop-color:#000000;stop-opacity:1"
       id="path900-4-3-3-4" />
    <text
       xml:space="preserve"
       style="font-style:normal;font-weight:normal;font-size:6.31164px;line-height:0;font-family:sans-serif;letter-spacing:-0.236686px;word-spacing:0px;fill:#000000;fill-opacity:1;stroke:none;stroke-width:0.0426541;filter:url(#filter1010-9)"
       x="86.002411"
       y="58.798351"
       id="text984-0"
       transform="matrix(6.2840105,0,0,6.1229849,-404.34596,-213.06207)"><tspan
         sodipodi:role="line"
         id="tspan982-1"
         x="85.884071"
         y="58.798351"
         style="font-style:normal;font-variant:normal;font-weight:normal;font-stretch:normal;font-size:6.31164px;font-family:'Arial Nova';-inkscape-font-specification:'Arial Nova';text-align:center;text-anchor:middle;stroke-width:0.0426541"
         dx="0">linkener</tspan></text>
  </g>
</svg>
